<svg xmlns="http://www.w3.org/2000/svg" xmlns:xlink="http://www.w3.org/1999/xlink" width="436" height="113.167"><defs><path id="a" d="M0 0h436v113.167H0z"/></defs><clipPath id="b"><use xlink:href="#a" overflow="visible"/></clipPath><g clip-path="url(#b)"><path fill="#188FCE" d="M68.438 11.021l-15.938.062c-7.062 31.188-27.599 47.553-31.48 49.492h78.926c-3.88-1.939-24.508-18.492-31.508-49.554z"/><path fill="#E5F3F6" d="M53.022 28.144l4.397-4.73 3.021 6.388 2.9-6.444 4.486 4.647-.549-5.671 7.781 7.651a89.056 89.056 0 01-6.49-19.06H52.397a89.132 89.132 0 01-6.649 19.389l7.715-7.848-.441 5.678z"/><path fill="#9ED7FF" d="M-1.67 170.015h164.334V55.135h-.593v1.301l-.897.507-.896.51-.619-.338-.84-.341v-1.866h-.617l-.281-.225-2.522.055V52.08h-7.626v3.394l-.281.282v1.98h-1.794l-.391-.453-.337-1.413-1.123-.057-4.204-.114-.843-.054-3.42.054v-7.86l-1.176-.509v-.51l-1.571-.508-2.354.113v1.583l-.446.056-.453.17h-18.838l-.618.51v6.164h-3.42v-3.167h-5.213v-5.655l-1.683-.51-3.42.171.11 2.658-13.847-.226-.17 1.923-1.849-.849-.225-2.544-1.571.111-2.691.397v-1.244l-8.13.056-.055-2.601-5.943-5.655-5.159.225-.337 6.448-3.477.169-1.737 2.376-1.852.056-.057 5.431-.558.112v.622l-.449.169v.905l-3.59-.057-.447.34-.167-5.881-1.458.056-1.514.397-.785-.171h-1.067l-.391-.509-4.543-.113h-7.626v5.825h-4.148v-.566l-.449.057h-3.419l-.673.509-.281-3.903h-.619V34.647h-5.436V32.78H3.896v1.528l-1.515.791v13.702l-.391.224-3.421-.846.056.677h-.295zM446.663 36.916h-.166v-1.414l.166-.05v-.325l-.865-.021h-4.18l.366.538v1.301h-2.159V40.705h-2.774v.622l.476.339v5.346h-.898l-.868 2.429-1.177.087-1.852.225h-4.064l-.393.143v2.742l-1.318.961v.594h-1.821V36.688l-.337-.62h-3.056v-1.922l-.786-.256h-5.718l-.28.171v.367l.561.197v1.359h-3.225l-.112.367.198.338v10.237h-1.936l-.085.284h-1.037l-.251-.341h-1.375l-.392.256v1.187h-.841v-1.075l-.196-.254h-1.655v-2.997l-.138-.282h-4.094v-2.149l-.337-.255h-1.962l-.87 1.017-.056.199h-1.765v.847h-1.739l-.392.991v4.863h-3.645l-.842.537H383.615l-1.513-.764-1.094.397-.699-.452-1.012.65-.279.056-.547.552h-8.762l-.729-.665.029-.593-.337.169-.14-.312-.869 1.358-.757-1.245-1.123 1.387v1.074h-1.542l-.222.113-.169-.028v-3.818l.169-.254v-.367h-2.046v-1.33H355.637v1.697h-2.748l-.057-.453h-1.347l-.055-.509h-.588v.877h-6.42l-.252.368v1.13h-.31l-.419.368H339.038l-.476-.197-.322.325h-1.464v121.726h109.887z"/><path fill="#56BDFD" d="M436.53 53.237h-22.114v2.581h-1.514l-.52.528v.888h-3.247v1.277l-.881.498-.881.5-.606-.332-.825-.334v-1.831h-.605l-.276-.222-2.477.055v-2.61H395.1v3.332l-.277.276v1.944h-1.76l-.383-.444-.331-1.386-1.103-.057-4.127-.111-.826-.055-3.357.055v-7.716l-1.155-.5v-.5l-1.541-.5-2.311.112v1.553l-.439.057-.443.166h-18.49l-.609.5v6.051h-3.355v-3.11h-5.118v-5.549l-1.652-.501-3.356.168.106 2.609-13.591-.222-.165 1.887-1.815-.833-.222-2.497-1.542.109-2.641.389v-1.221l-7.981.056-.053-2.554-5.834-5.55-5.065.221-.33 6.328-3.411.167-1.705 2.331-1.819.056-.055 5.33-.548.11v.611l-.442.166v.887l-3.523-.054-.439.334-.163-5.775-1.432.056-1.485.39-.771-.168h-1.048l-.384-.499-4.459-.112h-7.485v5.717h-4.072v-.554l-.44.055h-3.356l-.66.499-.277-3.83h-.606V33.198h-5.337v-1.832h-7.54v1.499l-1.486.777v17.375l-.385.22-3.359-.83.057.664h-2.533v1.611h-1.818v.832h-3.521v-1.72l-.275-.167v-1.055l-.661-.387-2.422.11v1.277l-3.412.112-.054-.501-1.871-.112V34.42h-6.384l-.165-.724-.441-.332.055-.943h-3.796v1.831l-.385.223h-2.205v17.262h-2.42V31.478l-1.485-3.22-.276-.944V6.109l-.166-.5-1.926-.166-.055-.834-2.531.112v.888h-2.476V2.666l-.496-.055.11-.555 1.431-1.11.055-.555-9.302.167v.388l1.597.943v.944h-.771v2.665l-5.778.167-1.048.277v22.26l-1.706 3.164v24.369l-4.511-.166-1.101.221H184.2l-.111-.498-1.43-.057-.11-1.054-1.982.054-.22-.386h-.331l.055-2.277-.66-.167-.165-.776-4.238-.222-1.155.054-.55.168v-1.333h-2.037v1.333l-.99.111-.992.165v.333H170v.556h-.632v.444h.578v.722h-.55v.277h.55v.665h-.606v.501l.261.263-.096.319-1.568.391h-2.422l-.33.33v1.028h-1.376l-.88.167h-1.322v-1.525l-.769-.695h-2.644l-.301-.084.027-.889h-2.613l-.139.75-.303.333h-3.081l-.442-.055-.604.36-.971-.023-.047-1.391-.169-.265-.031-.364.186-.24-.072-.634-.311-.488-.405.515-.059.618.156.229.01.323-.197.321-.099 1.399-1.156.027h-1.21l-.359-.497-.075-1.095.464-.093-.03-.354-.269-.011.288-.738-.165-.885-.543-.462-.797.029-.331.247-.392.456-.062.759.371.425.279.222.01.27.455.135v1.095l-1.459.055-.193.499-3.219-.028-1.073-.029-.991.363-2.036-.11-.056-.834-.385-1-1.761.36-1.266.112v1.692l-.851-.082-.057.806h-.329l.082.693H129.852V54.93l-.523-.721-1.788-.028v-5.828l-.305-.224h-1.237v-1.776h-8.256v7.939h-.881l-.219.359h-.908v2.223h-2.064v.777l-.633.083.055.332.743.277-.743.25.028.389.797.223-.715.886-.77-.61h-.881v-2.386l.276-.25.136-.75-.467-.248v-7.912l.358-.332.083-.665-.386-.417v-3.526l.303-.36v-.5l-.606-.167h-3.688V40.58l.276-.083.192-.278-1.155-.027h-4.102l.359.528v1.277h-2.118V45.688h-2.725v.61l.468.332v5.248h-.882l-.853 2.385-1.154.085-1.818.22H90.06l-.385.141v2.69l-1.294.944v.584h-1.788V41.744l-.331-.607h-2.998v-1.889l-.772-.25h-5.613l-.276.167v.361l.551.194v1.334h-3.166l-.11.359.195.332v10.049h-1.9l-.083.278h-1.018l-.246-.335h-1.351l-.385.252v1.165h-.824v-1.055l-.193-.249h-1.625v-2.942l-.135-.277h-4.019v-2.11l-.33-.25h-1.926l-.854.999-.054.195h-1.734v.832h-1.707l-.384.972v4.773h-3.577l-.828.527h-5.062l-1.485-.75-1.074.39-.687-.443-.992.637-.275.055-.536.542h-8.6l-.716-.652.028-.582-.33.165-.137-.306-.853 1.334-.743-1.223-1.102 1.361v1.055h-1.513l-.22.111-.165-.028v-3.748l.165-.249v-.36h-2.009v-1.306h-6.219v1.666h-2.696l-.055-.444h-1.323l-.054-.5h-.577v.86H7.368l-.248.362v1.109h-.304l-.411.362H2.084l-.467-.195-.317.319H-.137v117.793H436.53z"/></g><g fill="#FFF"><path d="M204.714 63.427v30.318h-6.633V63.427h6.633zm11.957 0h9.211l-13.194 14.932 12.779 15.387h-9.254l-11.325-15.471 11.783-14.848zM237.919 63.337v30.229h-8.015V63.337h8.015z"/><path d="M232.132 70.82h-8.548l6.478-7.554z"/></g><g fill="#FFF"><path d="M201.648 97.083v.277h-1.019c-.003.729-.132 1.283-.389 1.664-.256.381-.663.625-1.223.734l-.086-.274c.489-.099.841-.312 1.057-.642.217-.328.325-.821.327-1.482h-1.297a3.03 3.03 0 01-.6 1.004l-.243-.164c.408-.472.651-1.045.729-1.722l.303.017a3.882 3.882 0 01-.103.588h2.544zM202.315 98.345v-.307h3.271v.307h-3.271zM206.49 98.142v-1.364h2.973v.705c0 1.423-.775 2.181-2.325 2.276l-.043-.289c.703-.047 1.221-.232 1.555-.559.333-.326.5-.803.5-1.43v-.41h-2.348v1.069l-.312.002zM210.563 96.984l.142-.271c.429.215.839.443 1.23.684l-.157.271a15.928 15.928 0 00-1.215-.684zm3.101.158c-.27 1.542-1.259 2.389-2.969 2.535l-.047-.301c.784-.074 1.4-.299 1.849-.676.447-.379.738-.918.873-1.621l.294.063zM214.507 96.816h2.982v.066c0 .886-.208 1.559-.625 2.019s-1.062.737-1.938.831l-.055-.285c.763-.087 1.329-.314 1.695-.688.367-.371.566-.922.599-1.649h-2.658v-.294zM218.788 97.628v-.264h2.548v.264a1.694 1.694 0 01-.882 1.053l-.161-.228c.376-.197.621-.473.732-.828h-2.237v.003zm.176 1.916c.273-.117.466-.295.576-.533.109-.237.165-.602.165-1.09h.294c0 .549-.066.963-.198 1.238-.132.277-.363.486-.692.629l-.145-.244zM225.06 97.188h-1.58a2.927 2.927 0 01-.8 1.22l-.215-.195a2.735 2.735 0 00.862-1.721l.302.02a3.858 3.858 0 01-.07.398h1.826v.066c0 .893-.21 1.557-.631 1.996-.421.438-1.093.697-2.016.775l-.048-.283c.815-.078 1.408-.291 1.776-.641.369-.348.567-.892.594-1.635zM227.365 96.562v1.172c.739.178 1.487.408 2.242.689l-.094.291a18.64 18.64 0 00-2.148-.672v1.785h-.32V96.56l.32.002zM230.838 98.423v-1.768h.321v1.768h-.321zm2.094-1.767h.329v1.026c0 .674-.152 1.179-.457 1.513-.305.336-.802.549-1.491.645l-.07-.295c.628-.094 1.065-.277 1.314-.551.25-.273.375-.707.375-1.304v-1.034zM234.429 98.345v-.307h3.27v.307h-3.27z"/></g></svg>